<svg xmlns="http://www.w3.org/2000/svg" xmlns:xlink="http://www.w3.org/1999/xlink" width="200" zoomAndPan="magnify" viewBox="0 0 150 74.999997" height="100" preserveAspectRatio="xMidYMid meet" version="1.2"><defs/><g id="a30d58217b"><g style="fill:#ffffff;fill-opacity:1;"><g transform="translate(44.329967, 41.966724)"><path style="stroke:none" d="M 9.34375 -8.25 C 8.957031 -8.738281 8.441406 -9.132812 7.796875 -9.4375 C 7.148438 -9.738281 6.507812 -9.890625 5.875 -9.890625 C 5.03125 -9.890625 4.242188 -9.664062 3.515625 -9.21875 C 2.785156 -8.78125 2.207031 -8.191406 1.78125 -7.453125 C 1.363281 -6.722656 1.15625 -5.941406 1.15625 -5.109375 C 1.15625 -4.296875 1.375 -3.535156 1.8125 -2.828125 C 2.25 -2.128906 2.835938 -1.5625 3.578125 -1.125 C 4.328125 -0.695312 5.09375 -0.484375 5.875 -0.484375 C 6.5 -0.484375 7.132812 -0.628906 7.78125 -0.921875 C 8.4375 -1.222656 8.957031 -1.601562 9.34375 -2.0625 L 9.34375 -1.15625 C 8.289062 -0.289062 7.144531 0.140625 5.90625 0.140625 C 4.96875 0.140625 4.078125 -0.0976562 3.234375 -0.578125 C 2.398438 -1.066406 1.734375 -1.71875 1.234375 -2.53125 C 0.742188 -3.351562 0.5 -4.234375 0.5 -5.171875 C 0.5 -6.117188 0.738281 -7 1.21875 -7.8125 C 1.695312 -8.632812 2.359375 -9.285156 3.203125 -9.765625 C 4.046875 -10.253906 4.945312 -10.5 5.90625 -10.5 C 6.519531 -10.5 7.128906 -10.378906 7.734375 -10.140625 C 8.335938 -9.910156 8.875 -9.582031 9.34375 -9.15625 Z M 9.34375 -8.25 "/></g></g><g style="fill:#ffffff;fill-opacity:1;"><g transform="translate(53.41461, 41.966724)"><path style="stroke:none" d="M 4.40625 -10.71875 L 8.75 0 L 8.078125 0 L 6.6875 -3.40625 L 2.125 -3.40625 L 0.75 0 L 0.0625 0 Z M 2.375 -4.03125 L 6.4375 -4.03125 L 4.40625 -9.03125 Z M 2.375 -4.03125 "/></g></g><g style="fill:#ffffff;fill-opacity:1;"><g transform="translate(61.152362, 41.966724)"><path style="stroke:none" d="M 3.0625 -10.375 C 4.238281 -10.375 5.203125 -10.15625 5.953125 -9.71875 C 6.710938 -9.28125 7.320312 -8.660156 7.78125 -7.859375 C 8.25 -7.054688 8.484375 -6.160156 8.484375 -5.171875 C 8.484375 -4.484375 8.363281 -3.832031 8.125 -3.21875 C 7.882812 -2.601562 7.519531 -2.035156 7.03125 -1.515625 C 6.550781 -1.003906 5.988281 -0.625 5.34375 -0.375 C 4.707031 -0.125 3.945312 0 3.0625 0 L 1.109375 0 L 1.109375 -10.375 Z M 3.046875 -0.625 C 4.035156 -0.625 4.867188 -0.8125 5.546875 -1.1875 C 6.222656 -1.5625 6.769531 -2.101562 7.1875 -2.8125 C 7.613281 -3.53125 7.828125 -4.316406 7.828125 -5.171875 C 7.828125 -5.816406 7.707031 -6.421875 7.46875 -6.984375 C 7.238281 -7.554688 6.894531 -8.0625 6.4375 -8.5 C 5.988281 -8.9375 5.5 -9.253906 4.96875 -9.453125 C 4.445312 -9.648438 3.804688 -9.75 3.046875 -9.75 L 1.78125 -9.75 L 1.78125 -0.625 Z M 3.046875 -0.625 "/></g></g><g style="fill:#ffffff;fill-opacity:1;"><g transform="translate(69.041294, 41.966724)"><path style="stroke:none" d="M 4.40625 -10.71875 L 8.75 0 L 8.078125 0 L 6.6875 -3.40625 L 2.125 -3.40625 L 0.75 0 L 0.0625 0 Z M 2.375 -4.03125 L 6.4375 -4.03125 L 4.40625 -9.03125 Z M 2.375 -4.03125 "/></g></g><g style="fill:#ffffff;fill-opacity:1;"><g transform="translate(76.779047, 41.966724)"><path style="stroke:none" d="M 5.90625 -8.65625 C 5.40625 -9.476562 4.707031 -9.890625 3.8125 -9.890625 C 3.257812 -9.890625 2.796875 -9.695312 2.421875 -9.3125 C 2.046875 -8.9375 1.859375 -8.46875 1.859375 -7.90625 C 1.859375 -7.550781 1.96875 -7.238281 2.1875 -6.96875 C 2.414062 -6.695312 2.75 -6.453125 3.1875 -6.234375 L 5.59375 -4.984375 C 6.007812 -4.773438 6.328125 -4.488281 6.546875 -4.125 C 6.773438 -3.757812 6.890625 -3.359375 6.890625 -2.921875 C 6.890625 -2.359375 6.738281 -1.84375 6.4375 -1.375 C 6.144531 -0.90625 5.75 -0.535156 5.25 -0.265625 C 4.75 0.00390625 4.210938 0.140625 3.640625 0.140625 C 2.941406 0.140625 2.320312 -0.0546875 1.78125 -0.453125 C 1.238281 -0.847656 0.84375 -1.394531 0.59375 -2.09375 L 1.171875 -2.34375 C 1.410156 -1.738281 1.742188 -1.273438 2.171875 -0.953125 C 2.597656 -0.640625 3.097656 -0.484375 3.671875 -0.484375 C 4.117188 -0.484375 4.539062 -0.59375 4.9375 -0.8125 C 5.34375 -1.03125 5.660156 -1.328125 5.890625 -1.703125 C 6.117188 -2.085938 6.234375 -2.492188 6.234375 -2.921875 C 6.234375 -3.640625 5.765625 -4.226562 4.828125 -4.6875 C 4.410156 -4.882812 3.59375 -5.3125 2.375 -5.96875 C 1.59375 -6.382812 1.203125 -7.019531 1.203125 -7.875 C 1.203125 -8.65625 1.445312 -9.285156 1.9375 -9.765625 C 2.4375 -10.253906 3.070312 -10.5 3.84375 -10.5 C 4.375 -10.5 4.867188 -10.363281 5.328125 -10.09375 C 5.785156 -9.820312 6.132812 -9.472656 6.375 -9.046875 Z M 5.90625 -8.65625 "/></g></g><g style="fill:#ffffff;fill-opacity:1;"><g transform="translate(83.183653, 41.966724)"><path style="stroke:none" d="M 6.109375 -10.375 L 6.109375 -9.75 L 3.421875 -9.75 L 3.421875 0 L 2.765625 0 L 2.765625 -9.75 L 0.078125 -9.75 L 0.078125 -10.375 Z M 6.109375 -10.375 "/></g></g><g style="fill:#ffffff;fill-opacity:1;"><g transform="translate(88.296342, 41.966724)"><path style="stroke:none" d="M 2.515625 -10.375 C 3.148438 -10.375 3.632812 -10.328125 3.96875 -10.234375 C 4.300781 -10.140625 4.613281 -9.972656 4.90625 -9.734375 C 5.195312 -9.492188 5.421875 -9.191406 5.578125 -8.828125 C 5.734375 -8.472656 5.8125 -8.070312 5.8125 -7.625 C 5.8125 -6.769531 5.550781 -6.101562 5.03125 -5.625 C 4.519531 -5.144531 3.804688 -4.90625 2.890625 -4.90625 L 2.84375 -4.90625 L 6.25 0 L 5.484375 0 L 2.109375 -4.90625 L 1.78125 -4.90625 L 1.78125 0 L 1.109375 0 L 1.109375 -10.375 Z M 2.6875 -5.53125 C 3.144531 -5.53125 3.515625 -5.570312 3.796875 -5.65625 C 4.085938 -5.738281 4.34375 -5.898438 4.5625 -6.140625 C 4.789062 -6.378906 4.945312 -6.625 5.03125 -6.875 C 5.113281 -7.125 5.15625 -7.378906 5.15625 -7.640625 C 5.15625 -7.867188 5.117188 -8.09375 5.046875 -8.3125 C 4.984375 -8.539062 4.894531 -8.738281 4.78125 -8.90625 C 4.664062 -9.082031 4.523438 -9.226562 4.359375 -9.34375 C 4.191406 -9.457031 4.023438 -9.539062 3.859375 -9.59375 C 3.703125 -9.65625 3.519531 -9.695312 3.3125 -9.71875 C 3.101562 -9.738281 2.722656 -9.75 2.171875 -9.75 L 1.78125 -9.75 L 1.78125 -5.53125 Z M 2.6875 -5.53125 "/></g></g><g style="fill:#ffffff;fill-opacity:1;"><g transform="translate(93.931297, 41.966724)"><path style="stroke:none" d="M 11.25 -5.1875 C 11.25 -4.238281 11 -3.347656 10.5 -2.515625 C 10 -1.691406 9.335938 -1.039062 8.515625 -0.5625 C 7.691406 -0.09375 6.8125 0.140625 5.875 0.140625 C 4.914062 0.140625 4.019531 -0.0976562 3.1875 -0.578125 C 2.351562 -1.066406 1.695312 -1.722656 1.21875 -2.546875 C 0.738281 -3.367188 0.5 -4.25 0.5 -5.1875 C 0.5 -6.144531 0.742188 -7.035156 1.234375 -7.859375 C 1.734375 -8.691406 2.394531 -9.335938 3.21875 -9.796875 C 4.050781 -10.265625 4.9375 -10.5 5.875 -10.5 C 6.8125 -10.5 7.695312 -10.257812 8.53125 -9.78125 C 9.363281 -9.3125 10.023438 -8.664062 10.515625 -7.84375 C 11.003906 -7.019531 11.25 -6.132812 11.25 -5.1875 Z M 5.875 -0.484375 C 6.695312 -0.484375 7.472656 -0.691406 8.203125 -1.109375 C 8.929688 -1.535156 9.507812 -2.113281 9.9375 -2.84375 C 10.375 -3.570312 10.59375 -4.351562 10.59375 -5.1875 C 10.59375 -6.007812 10.378906 -6.785156 9.953125 -7.515625 C 9.523438 -8.242188 8.941406 -8.820312 8.203125 -9.25 C 7.472656 -9.675781 6.691406 -9.890625 5.859375 -9.890625 C 5.023438 -9.890625 4.238281 -9.671875 3.5 -9.234375 C 2.769531 -8.804688 2.195312 -8.226562 1.78125 -7.5 C 1.363281 -6.769531 1.15625 -6 1.15625 -5.1875 C 1.15625 -4.34375 1.375 -3.550781 1.8125 -2.8125 C 2.25 -2.082031 2.828125 -1.507812 3.546875 -1.09375 C 4.273438 -0.6875 5.050781 -0.484375 5.875 -0.484375 Z M 5.875 -0.484375 "/></g></g></g></svg>