<svg xmlns="http://www.w3.org/2000/svg" xmlns:xlink="http://www.w3.org/1999/xlink" width="500" zoomAndPan="magnify" viewBox="0 0 375 374.999991" height="500" preserveAspectRatio="xMidYMid meet" version="1.2"><defs/><g id="3ef3deec31"><g style="fill:#ffde59;fill-opacity:1;"><g transform="translate(178.806527, 262.96012)"><path style="stroke:none" d="M 72.328125 -72.421875 L 72.328125 0 L 66.015625 0 L 19.453125 -58.765625 L 19.453125 0 L 11.796875 0 L 11.796875 -72.421875 L 18.109375 -72.421875 L 64.765625 -13.65625 L 64.765625 -72.421875 Z M 72.328125 -72.421875 "/></g></g><g style="fill:#ffde59;fill-opacity:1;"><g transform="translate(176.974699, 112.032441)"><path style="stroke:none" d="M -111.234375 72.421875 L -86.8125 0 L -78.734375 0 L -57.53125 61.765625 L -36.21875 0 L -28.25 0 L -3.828125 72.421875 L -11.6875 72.421875 L -32.59375 10.140625 L -54.21875 72.421875 L -61.359375 72.421875 L -82.671875 9.828125 L -103.875 72.421875 Z M -111.234375 72.421875 "/></g></g><g style="fill:#00bf63;fill-opacity:1;"><g transform="translate(178.910134, 184.509777)"><path style="stroke:none" d="M 11.546875 -3.1875 L 4.65625 -3.1875 L 3.328125 0 L -0.1875 0 L 6.4375 -14.859375 L 9.828125 -14.859375 L 16.484375 0 L 12.875 0 Z M 10.46875 -5.796875 L 8.109375 -11.484375 L 5.75 -5.796875 Z M 10.46875 -5.796875 "/></g></g><g style="fill:#00bf63;fill-opacity:1;"><g transform="translate(194.966141, 184.509777)"><path style="stroke:none" d="M 11.8125 -7.671875 L 14.953125 -7.671875 L 14.953125 -1.640625 C 14.140625 -1.023438 13.203125 -0.554688 12.140625 -0.234375 C 11.078125 0.0859375 10.007812 0.25 8.9375 0.25 C 7.394531 0.25 6.007812 -0.078125 4.78125 -0.734375 C 3.550781 -1.390625 2.582031 -2.300781 1.875 -3.46875 C 1.175781 -4.632812 0.828125 -5.957031 0.828125 -7.4375 C 0.828125 -8.90625 1.175781 -10.222656 1.875 -11.390625 C 2.582031 -12.554688 3.554688 -13.46875 4.796875 -14.125 C 6.046875 -14.789062 7.445312 -15.125 9 -15.125 C 10.300781 -15.125 11.484375 -14.898438 12.546875 -14.453125 C 13.609375 -14.015625 14.5 -13.378906 15.21875 -12.546875 L 13.015625 -10.515625 C 11.953125 -11.628906 10.671875 -12.1875 9.171875 -12.1875 C 8.222656 -12.1875 7.378906 -11.988281 6.640625 -11.59375 C 5.910156 -11.195312 5.335938 -10.632812 4.921875 -9.90625 C 4.515625 -9.1875 4.3125 -8.363281 4.3125 -7.4375 C 4.3125 -6.507812 4.515625 -5.6875 4.921875 -4.96875 C 5.335938 -4.25 5.910156 -3.6875 6.640625 -3.28125 C 7.367188 -2.875 8.195312 -2.671875 9.125 -2.671875 C 10.113281 -2.671875 11.007812 -2.882812 11.8125 -3.3125 Z M 11.8125 -7.671875 "/></g></g><g style="fill:#00bf63;fill-opacity:1;"><g transform="translate(211.340749, 184.509777)"><path style="stroke:none" d="M 1.765625 -14.859375 L 5.203125 -14.859375 L 5.203125 0 L 1.765625 0 Z M 1.765625 -14.859375 "/></g></g><g style="fill:#00bf63;fill-opacity:1;"><g transform="translate(218.306855, 184.509777)"><path style="stroke:none" d="M 6.640625 0.25 C 5.472656 0.25 4.335938 0.09375 3.234375 -0.21875 C 2.140625 -0.539062 1.257812 -0.957031 0.59375 -1.46875 L 1.765625 -4.0625 C 2.398438 -3.59375 3.15625 -3.210938 4.03125 -2.921875 C 4.90625 -2.640625 5.785156 -2.5 6.671875 -2.5 C 7.640625 -2.5 8.359375 -2.644531 8.828125 -2.9375 C 9.296875 -3.226562 9.53125 -3.613281 9.53125 -4.09375 C 9.53125 -4.445312 9.390625 -4.738281 9.109375 -4.96875 C 8.835938 -5.207031 8.484375 -5.394531 8.046875 -5.53125 C 7.617188 -5.675781 7.039062 -5.835938 6.3125 -6.015625 C 5.175781 -6.273438 4.242188 -6.539062 3.515625 -6.8125 C 2.796875 -7.082031 2.175781 -7.515625 1.65625 -8.109375 C 1.144531 -8.703125 0.890625 -9.492188 0.890625 -10.484375 C 0.890625 -11.347656 1.125 -12.128906 1.59375 -12.828125 C 2.0625 -13.535156 2.765625 -14.09375 3.703125 -14.5 C 4.648438 -14.914062 5.800781 -15.125 7.15625 -15.125 C 8.101562 -15.125 9.03125 -15.007812 9.9375 -14.78125 C 10.84375 -14.550781 11.632812 -14.222656 12.3125 -13.796875 L 11.25 -11.1875 C 9.875 -11.96875 8.503906 -12.359375 7.140625 -12.359375 C 6.171875 -12.359375 5.457031 -12.203125 5 -11.890625 C 4.539062 -11.578125 4.3125 -11.164062 4.3125 -10.65625 C 4.3125 -10.144531 4.578125 -9.765625 5.109375 -9.515625 C 5.640625 -9.273438 6.445312 -9.035156 7.53125 -8.796875 C 8.664062 -8.523438 9.59375 -8.253906 10.3125 -7.984375 C 11.039062 -7.710938 11.660156 -7.285156 12.171875 -6.703125 C 12.691406 -6.128906 12.953125 -5.347656 12.953125 -4.359375 C 12.953125 -3.503906 12.710938 -2.726562 12.234375 -2.03125 C 11.765625 -1.332031 11.054688 -0.773438 10.109375 -0.359375 C 9.160156 0.046875 8.003906 0.25 6.640625 0.25 Z M 6.640625 0.25 "/></g></g><g style="fill:#00bf63;fill-opacity:1;"><g transform="translate(254.518096, 263.681003)"><path style="stroke:none" d="M 15.390625 -14.859375 L 15.390625 0 L 12.578125 0 L 5.15625 -9.03125 L 5.15625 0 L 1.765625 0 L 1.765625 -14.859375 L 4.609375 -14.859375 L 12 -5.84375 L 12 -14.859375 Z M 15.390625 -14.859375 "/></g></g><g style="fill:#00bf63;fill-opacity:1;"><g transform="translate(271.678509, 263.681003)"><path style="stroke:none" d="M 8.953125 0.25 C 7.410156 0.25 6.019531 -0.078125 4.78125 -0.734375 C 3.550781 -1.398438 2.582031 -2.316406 1.875 -3.484375 C 1.175781 -4.660156 0.828125 -5.976562 0.828125 -7.4375 C 0.828125 -8.894531 1.175781 -10.207031 1.875 -11.375 C 2.582031 -12.539062 3.550781 -13.457031 4.78125 -14.125 C 6.019531 -14.789062 7.410156 -15.125 8.953125 -15.125 C 10.503906 -15.125 11.894531 -14.789062 13.125 -14.125 C 14.351562 -13.457031 15.320312 -12.539062 16.03125 -11.375 C 16.738281 -10.207031 17.09375 -8.894531 17.09375 -7.4375 C 17.09375 -5.976562 16.738281 -4.660156 16.03125 -3.484375 C 15.320312 -2.316406 14.351562 -1.398438 13.125 -0.734375 C 11.894531 -0.078125 10.503906 0.25 8.953125 0.25 Z M 8.953125 -2.671875 C 9.835938 -2.671875 10.632812 -2.875 11.34375 -3.28125 C 12.050781 -3.6875 12.601562 -4.25 13 -4.96875 C 13.40625 -5.6875 13.609375 -6.507812 13.609375 -7.4375 C 13.609375 -8.351562 13.40625 -9.171875 13 -9.890625 C 12.601562 -10.617188 12.050781 -11.179688 11.34375 -11.578125 C 10.632812 -11.984375 9.835938 -12.1875 8.953125 -12.1875 C 8.078125 -12.1875 7.285156 -11.984375 6.578125 -11.578125 C 5.867188 -11.179688 5.3125 -10.617188 4.90625 -9.890625 C 4.507812 -9.171875 4.3125 -8.351562 4.3125 -7.4375 C 4.3125 -6.507812 4.507812 -5.6875 4.90625 -4.96875 C 5.3125 -4.25 5.867188 -3.6875 6.578125 -3.28125 C 7.285156 -2.875 8.078125 -2.671875 8.953125 -2.671875 Z M 8.953125 -2.671875 "/></g></g><g style="fill:#00bf63;fill-opacity:1;"><g transform="translate(289.391092, 263.681003)"><path style="stroke:none" d="M 4.84375 -12.0625 L 0.078125 -12.0625 L 0.078125 -14.859375 L 13.03125 -14.859375 L 13.03125 -12.0625 L 8.28125 -12.0625 L 8.28125 0 L 4.84375 0 Z M 4.84375 -12.0625 "/></g></g><g style="fill:#00bf63;fill-opacity:1;"><g transform="translate(302.516266, 263.681003)"><path style="stroke:none" d="M 1.765625 -14.859375 L 5.203125 -14.859375 L 5.203125 0 L 1.765625 0 Z M 1.765625 -14.859375 "/></g></g><g style="fill:#00bf63;fill-opacity:1;"><g transform="translate(309.482371, 263.681003)"><path style="stroke:none" d="M 4.84375 -12.0625 L 0.078125 -12.0625 L 0.078125 -14.859375 L 13.03125 -14.859375 L 13.03125 -12.0625 L 8.28125 -12.0625 L 8.28125 0 L 4.84375 0 Z M 4.84375 -12.0625 "/></g></g><g style="fill:#00bf63;fill-opacity:1;"><g transform="translate(322.607545, 263.681003)"><path style="stroke:none" d="M 1.765625 -14.859375 L 5.203125 -14.859375 L 5.203125 0 L 1.765625 0 Z M 1.765625 -14.859375 "/></g></g><g style="fill:#00bf63;fill-opacity:1;"><g transform="translate(329.573651, 263.681003)"><path style="stroke:none" d="M 11.546875 -3.1875 L 4.65625 -3.1875 L 3.328125 0 L -0.1875 0 L 6.4375 -14.859375 L 9.828125 -14.859375 L 16.484375 0 L 12.875 0 Z M 10.46875 -5.796875 L 8.109375 -11.484375 L 5.75 -5.796875 Z M 10.46875 -5.796875 "/></g></g></g></svg>